<svg xmlns="http://www.w3.org/2000/svg" viewBox="0 0 64 64" fill="none">
  <defs>
    <linearGradient id="shieldGrad" x1="0%" y1="0%" x2="100%" y2="100%">
      <stop offset="0%" style="stop-color:#06b6d4;stop-opacity:1" />
      <stop offset="100%" style="stop-color:#0e7490;stop-opacity:1" />
    </linearGradient>
  </defs>
  <!-- Shield shape -->
  <path d="M32 4 L56 14 L56 34 C56 47 44 57 32 61 C20 57 8 47 8 34 L8 14 Z"
        fill="url(#shieldGrad)" />
  <!-- Inner shield highlight -->
  <path d="M32 10 L50 18 L50 34 C50 44 42 52 32 56 C22 52 14 44 14 34 L14 18 Z"
        fill="none" stroke="rgba(255,255,255,0.25)" stroke-width="1.5"/>
  <!-- Lock icon -->
  <rect x="24" y="33" width="16" height="12" rx="2" fill="white" opacity="0.95"/>
  <path d="M26 33 L26 28 C26 23.6 37.4 23.6 37.4 28 L37.4 33"
        stroke="white" stroke-width="2.5" stroke-linecap="round" fill="none" opacity="0.95"/>
  <circle cx="32" cy="39" r="2" fill="#0e7490"/>
</svg>
